<svg aria-hidden="true" focusable="false" class="h-4 w-auto" role="img"
  viewBox="0 0 143 31" xmlns="http://www.w3.org/2000/svg">
  <path
    d="M132.408,10.53137v1.32422a3.56438,3.56438,0,0,0,.028.45062h-.056s-1.043-2.11291-4.48-2.11291c-3.944,0-6.226,3.0426-6.226,7.12762,0,4.1131,2.395,7.29657,6.367,7.29657a4.52254,4.52254,0,0,0,4.226-2.22558h.056s-.028.45068-.028.90149v1.04229c0,2.9018-2.028,4.00049-4.507,4.00049a9.18266,9.18266,0,0,1-3.916-.95788l-.902,2.14111a11.107,11.107,0,0,0,4.874,1.18317c3.606,0,7.184-1.803,7.184-6.50769V10.53131ZM128.576,22.251c-2.563,0-4.141-2.02838-4.141-4.98645,0-2.90174,1.409-4.70472,3.888-4.70472,2.226,0,4.029,1.0705,4.029,4.78931S130.549,22.251,128.576,22.251Zm-25.796.1972a4.36292,4.36292,0,0,0,.479-.0282v2.42279a7.67274,7.67274,0,0,1-.902.0564c-1.549,0-3.83081-.42255-3.83081-4.00049V4.897H101.259V20.4198C101.259,22.13831,101.935,22.44818,102.78,22.44818Zm14.88-10.1687a7.436,7.436,0,1,0,1.678,2.44513A7.4411,7.4411,0,0,0,117.66,12.27948Zm-.835,7.29291a4.90875,4.90875,0,0,1-9.491-1.94159,4.90486,4.90486,0,1,1,9.804,0A4.92615,4.92615,0,0,1,116.825,19.57239ZM92.22137,14.30652v-.0564A4.65683,4.65683,0,0,0,94.70062,9.968c0-3.21167-2.42279-5.071-5.77533-5.071H81.9668V24.7865h7.1275c3.49341,0,6.39508-1.91571,6.39508-5.6626a4.7911,4.7911,0,0,0-3.268-4.81738ZM84.7558,7.3197H88.869a2.73836,2.73836,0,0,1,2.9862,2.93,2.81728,2.81728,0,0,1-2.92993,3.01441H84.7558Zm7.69659,13.0025a3.15846,3.15846,0,0,1-3.21716,2.04151H84.7558V15.57422H89.207A3.23081,3.23081,0,0,1,92.644,18.983,3.15731,3.15731,0,0,1,92.45239,20.3222Zm-72.586-.45562h4.9729v4.9483H9.94531V4.97266h4.94831v14.894Zm46.2334-3.028c0-4.08661-2.43731-7.11474-6.79468-7.11474a7.40643,7.40643,0,0,0-7.7055,7.7055c0,3.93885,2.83118,7.7301,8.09936,7.7301a9.931,9.931,0,0,0,6.30225-2.1419l-1.82172-3.471a7.75172,7.75172,0,0,1-4.062,1.47711,3.28177,3.28177,0,0,1-3.42187-2.63415h9.281S66.09973,17.33087,66.09979,16.83862Zm-9.25647-1.28033a2.4005,2.4005,0,0,1,2.36328-2.117,2.00447,2.00447,0,0,1,1.94489,2.117ZM33.2099,9.72388a11.089,11.089,0,0,0-6.17908,1.9201l1.72327,3.49579a8.64742,8.64742,0,0,1,3.9635-1.4032c1.2309,0,2.16638.39405,2.16638,1.62482v.24634h-.197c-2.28949,0-8.54248.49225-8.54248,4.77575a4.69424,4.69424,0,0,0,4.9975,4.75135A4.58524,4.58524,0,0,0,35.32709,22.993h.04919a8.75255,8.75255,0,0,0-.04919.91089v.88623h4.50512V15.73077C39.83221,11.98877,37.34583,9.72388,33.2099,9.72388Zm1.74792,9.03485a2.74591,2.74591,0,0,1-2.43719,2.6095c-.96014,0-1.40326-.54151-1.40326-1.2309,0-1.231,1.79712-1.69861,3.37274-1.69861h.46771Zm42.4419-8.96082a3.56157,3.56157,0,0,1,.56616.0492V14.6969a6.03447,6.03447,0,0,0-1.0094-.07379,3.69162,3.69162,0,0,0-3.7912,2.5849,6.67994,6.67994,0,0,0-.24609,1.994v5.56366h-4.9483v-14.697h4.72674v2.48638a8.71381,8.71381,0,0,1-.04925.91077h.04925a5.14125,5.14125,0,0,1,4.70209-3.668ZM50.1723,20.60522c.39392,0,.66468-.02459.66468-.02459v4.25885a11.07927,11.07927,0,0,1-1.35395.074c-2.33874,0-6.89313-.64013-6.89313-5.58844v-5.1452H40.69427v-3.865H42.713V6.08057h4.8006v4.23431h3.10187v3.865H47.53821v4.52985C47.53821,20.35907,49.23682,20.60522,50.1723,20.60522Z"
    fill="currentColor"></path>
  <path d="M9.9455,0V4.97284H4.97266V0Z" fill="#ffb404"></path>
  <path d="M4.9729,9.9209v4.9729H0V9.9209Z" fill="#25c6fe"></path>
  <path d="M9.9455,14.894v4.9729H4.97266V14.894Z" fill="#5d5cb0"></path>
  <path d="M14.91821,24.81537v4.9729H9.94531v-4.9729Z" fill="#25c6fe"></path>
  <path d="M19.86639,14.894v4.9729H14.89362V14.894Z" fill="#f98c65"></path>
  <path d="M24.84009,9.9209v4.9729h-4.9729V9.9209Z" fill="#70c889"></path>
  <path d="M138.052,2.69336v4.9729h-4.973V2.69336Z" fill="#93a2ff"></path>
  <path d="M142.999,2.69336v4.9729h-4.973V2.69336Z" fill="#bddf60"></path>
  <path d="M142.999,7.666v4.9483h-4.973V7.666Z" fill="#25c6fe"></path>
</svg>